<svg xmlns="http://www.w3.org/2000/svg" version="1.1" xmlns:xlink="http://www.w3.org/1999/xlink" width="512" height="512" x="0" y="0" viewBox="0 0 494.82 494.82" style="enable-background:new 0 0 512 512" xml:space="preserve" class=""><g><path fill="#e7b9db" d="m401.725 269.124-31.701 31.701a7.026 7.026 0 0 1-4.968 2.058h-95.285V191.937h95.285c1.863 0 3.65.74 4.968 2.058l31.701 31.701z" opacity="1" data-original="#e7b9db"></path><path fill="#aca6d6" d="m95.078 271.108 29.717 29.717a7.026 7.026 0 0 0 4.968 2.058h88.027V191.937h-88.027c-1.863 0-3.65.74-4.968 2.058l-29.717 29.717a6.77 6.77 0 0 0-1.983 4.788v37.819c0 1.796.713 3.519 1.983 4.789z" opacity="1" data-original="#aca6d6"></path><path fill="#978ecb" d="M135.827 191.937a123.447 123.447 0 0 0-5.755 13.485c-1.72 4.801-6.212 8.047-11.312 8.047h-13.44l-10.243 10.243a6.77 6.77 0 0 0-1.983 4.788v37.819a6.77 6.77 0 0 0 1.983 4.788l10.232 10.232h13.447c5.1 0 9.592 3.246 11.312 8.047a123.443 123.443 0 0 0 5.758 13.496h81.963V191.937z" opacity="1" data-original="#978ecb"></path><path fill="#86e8d0" d="M20.88 226.47h173.78v41.87H20.88z" opacity="1" data-original="#86e8d0"></path><path fill="#5de1c4" d="M77.01 226.47h32.98v41.87H77.01z" opacity="1" data-original="#5de1c4"></path><path fill="#d691c6" d="M389.499 213.47h-12.111c-5.79 0-10.996-3.587-12.994-9.021a123.472 123.472 0 0 0-5.401-12.511h-89.221v110.945h89.221a123.455 123.455 0 0 0 5.403-12.515c1.998-5.434 7.203-9.021 12.993-9.022l12.116-.001 12.221-12.221v-43.429z" opacity="1" data-original="#d691c6"></path><path fill="#86e8d0" d="M480.29 226.47v41.87l-182.28.01v-41.88z" opacity="1" data-original="#86e8d0"></path><path fill="#5de1c4" d="M417.81 226.47v41.87l-32.98.01v-41.88zM122.778 247.41c0 7.132.611 14.123 1.767 20.93h70.115v-41.87h-70.113a124.84 124.84 0 0 0-1.769 20.94zM298.01 268.35l72.264-.004a124.897 124.897 0 0 0-.001-41.876H298.01z" opacity="1" data-original="#5de1c4"></path><circle cx="247.41" cy="247.41" r="104.632" fill="#978ecb" opacity="1" data-original="#978ecb"></circle><path fill="#8379c1" d="M195.528 247.41c0-48.676 33.239-89.585 78.257-101.276a104.813 104.813 0 0 0-26.375-3.355c-57.786 0-104.632 46.845-104.632 104.632s46.845 104.632 104.632 104.632c9.111 0 17.949-1.167 26.375-3.355-45.018-11.693-78.257-52.602-78.257-101.278z" opacity="1" data-original="#8379c1"></path><path fill="#edcbe4" d="M247.41 172.78v45.01l-1.99 10.894 13.753 6.58 9.167-8.784.01-.01 31.81-31.81c-13.52-13.51-32.17-21.88-52.75-21.88z" opacity="1" data-original="#edcbe4"></path><path fill="#edcbe4" d="M300.16 194.66c-13.52-13.51-32.17-21.88-52.75-21.88s-39.23 8.37-52.75 21.88c-13.51 13.52-21.88 32.17-21.88 52.75s8.37 39.23 21.88 52.75c13.52 13.51 32.17 21.88 52.75 21.88s39.23-8.37 52.75-21.88c13.51-13.52 21.88-32.17 21.88-52.75s-8.37-39.23-21.88-52.75zm-73.68 73.68.848-.888zm7.74-8.104-6.557-14.04-2.715.334 6.913-13.977-5.38-6.074 5.38 4.893 14.499-7.828-.938 5.139 13.753 6.58 3.689-3.535-2.494 2.39 3.414 14.216 3.782-.264-4.325 11.285 1.128 1.987-16.956 4.093v-3.189l-11.675-3.597z" opacity="1" data-original="#edcbe4"></path><path fill="#dfa8d2" d="m194.66 194.66 31.81 31.81.01.01 5.38 4.893 15.55-8.396v-50.198c-20.58.001-39.23 8.371-52.75 21.881z" opacity="1" data-original="#dfa8d2"></path><path fill="#d691c6" d="M204.642 204.642a104.837 104.837 0 0 1 18.171-27.695 74.886 74.886 0 0 0-28.153 17.713z" opacity="1" data-original="#d691c6"></path><path fill="#dfa8d2" d="m300.16 194.66-31.81 31.81-7.982 7.648 3.414 14.216 13.249-.925h45.01c-.001-20.579-8.371-39.229-21.881-52.749z" opacity="1" data-original="#dfa8d2"></path><path fill="#edcbe4" d="M277.03 247.41h-9.213l-4.579 11.945 5.102 8.985.01.01 31.81 31.81c13.51-13.52 21.88-32.17 21.88-52.75z" opacity="1" data-original="#edcbe4"></path><path fill="#dfa8d2" d="m300.16 300.16-31.81-31.81-.01-.01-1.58-7.576-22.983 5.548 3.633 10.718v45.01c20.58 0 39.23-8.37 52.75-21.88z" opacity="1" data-original="#dfa8d2"></path><path fill="#edcbe4" d="m235.735 258.649-9.265 9.701-31.81 31.81c13.52 13.51 32.17 21.88 52.75 21.88v-59.794z" opacity="1" data-original="#edcbe4"></path><path fill="#dfa8d2" d="m204.642 290.178-9.982 9.982a74.886 74.886 0 0 0 28.153 17.713 104.837 104.837 0 0 1-18.171-27.695z" opacity="1" data-original="#dfa8d2"></path><path fill="#dfa8d2" d="m234.22 260.236-6.557-14.04-9.873 1.214h-45.01c0 20.58 8.37 39.23 21.88 52.75l31.81-31.81.01-.01z" opacity="1" data-original="#dfa8d2"></path><path fill="#d691c6" d="m194.66 300.16 9.982-9.982c-5.855-13.057-9.114-27.532-9.114-42.768H172.78c0 20.58 8.37 39.23 21.88 52.75z" opacity="1" data-original="#d691c6"></path><path fill="#edcbe4" d="m226.48 226.48-.01-.01-31.81-31.81c-13.51 13.52-21.88 32.17-21.88 52.75h45.01l6.725-.005 7.346-14.852z" opacity="1" data-original="#edcbe4"></path><path fill="#dfa8d2" d="M172.78 247.41h22.748c0-15.236 3.258-29.711 9.114-42.768l-9.982-9.982c-13.51 13.52-21.88 32.17-21.88 52.75z" opacity="1" data-original="#dfa8d2"></path><circle cx="247.41" cy="247.41" r="29.62" fill="#978ecb" opacity="1" data-original="#978ecb"></circle><path fill="#8379c1" d="M238.72 247.41c0-12.647 7.985-23.467 19.166-27.706a29.527 29.527 0 0 0-10.476-1.914c-16.33 0-29.62 13.29-29.62 29.62s13.29 29.62 29.62 29.62c3.683 0 7.22-.685 10.476-1.92-11.181-4.239-19.166-15.053-19.166-27.7z" opacity="1" data-original="#8379c1"></path><path fill="#dfa8d2" d="M132.7 449.92c.39.72-.12 1.59-.94 1.59h-19.43c-.34 0-.66-.15-.86-.42L1.66 306.38A8.173 8.173 0 0 1 0 301.43V193.39c0-1.79.58-3.53 1.66-4.95l109.6-144.43c.33-.44.86-.7 1.42-.7h17.89c1.35 0 2.21 1.44 1.56 2.63L44.95 205.91v83z" opacity="1" data-original="#dfa8d2"></path><g fill="#d691c6"><path d="M103.971 397.205H70.58l11.383 15h30.182zM73.892 342.015H28.701l11.383 15h41.983zM0 276.768v15h46.508l-1.558-2.858v-12.142zM0 218.052h44.95V205.91l1.558-2.858H0zM28.702 152.805h45.189l8.175-15H40.084zM81.965 82.615l-11.383 15h33.386l8.175-15z" fill="#d691c6" opacity="1" data-original="#d691c6"></path></g><path fill="#dfa8d2" d="M494.82 301.43c0 1.79-.58 3.53-1.66 4.95L383.35 451.09c-.2.27-.52.42-.86.42h-19.43c-.82 0-1.33-.87-.94-1.59l87.75-161.01v-83L362.69 45.94c-.65-1.19.21-2.63 1.56-2.63h17.89c.56 0 1.09.26 1.42.7l109.6 144.43a8.173 8.173 0 0 1 1.66 4.95z" opacity="1" data-original="#dfa8d2"></path><path fill="#d691c6" d="m382.677 82.615 8.175 15h33.386l-11.383-15zM454.736 137.805h-41.982l8.175 15h45.189zM494.82 218.052v-15h-46.508l1.558 2.858v12.142zM494.82 276.768h-44.95v12.142l-1.558 2.858h46.508zM466.119 342.015h-45.191l-8.175 15h41.983zM412.857 412.205l11.383-15h-33.391l-8.174 15z" opacity="1" data-original="#d691c6"></path></g></svg>