<svg xmlns="http://www.w3.org/2000/svg" version="1.1" xmlns:xlink="http://www.w3.org/1999/xlink" width="512" height="512" x="0" y="0" viewBox="0 0 24 24" style="enable-background:new 0 0 512 512" xml:space="preserve" class=""><g><g fill="#000" fill-rule="evenodd" clip-rule="evenodd"><path d="M5 2a3 3 0 0 0-3 3v14a3 3 0 0 0 3 3h14a3 3 0 0 0 3-3V5a3 3 0 0 0-3-3zm5 5a1 1 0 0 1 1-1h2a1 1 0 0 1 1 1v3h3a1 1 0 0 1 1 1v2a1 1 0 0 1-1 1h-3v3a1 1 0 0 1-1 1h-2a1 1 0 0 1-1-1v-3H7a1 1 0 0 1-1-1v-2a1 1 0 0 1 1-1h3z" fill="#4a9a00" opacity="1" data-original="#000000" class=""></path><path d="M5 3a2 2 0 0 0-2 2v14a2 2 0 0 0 2 2h14a2 2 0 0 0 2-2V5a2 2 0 0 0-2-2zm4 4a2 2 0 0 1 2-2h2a2 2 0 0 1 2 2v2h2a2 2 0 0 1 2 2v2a2 2 0 0 1-2 2h-2v2a2 2 0 0 1-2 2h-2a2 2 0 0 1-2-2v-2H7a2 2 0 0 1-2-2v-2a2 2 0 0 1 2-2h2zM2 5a3 3 0 0 1 3-3h14a3 3 0 0 1 3 3v14a3 3 0 0 1-3 3H5a3 3 0 0 1-3-3zm9 1a1 1 0 0 0-1 1v3H7a1 1 0 0 0-1 1v2a1 1 0 0 0 1 1h3v3a1 1 0 0 0 1 1h2a1 1 0 0 0 1-1v-3h3a1 1 0 0 0 1-1v-2a1 1 0 0 0-1-1h-3V7a1 1 0 0 0-1-1z" fill="#4a9a00" opacity="1" data-original="#000000" class=""></path></g></g></svg>