<svg xmlns="http://www.w3.org/2000/svg" version="1.1" xmlns:xlink="http://www.w3.org/1999/xlink" width="512" height="512" x="0" y="0" viewBox="0 0 256 256" style="enable-background:new 0 0 512 512" xml:space="preserve" class=""><g><path fill="#1a638a" d="M39.953 65.932h8.682v5.5h-8.682zM70.607 65.932h53.66v5.5h-53.66zM55.24 65.932h8.681v5.5H55.24z" opacity="1" data-original="#1a638a" class=""></path><path fill="#177ca0" d="M29.907 86.865h8.681v5.5h-8.681zM45.273 86.865h53.66v5.5h-53.66z" opacity="1" data-original="#177ca0" class=""></path><path fill="#1a638a" d="M52.331 123.113h8.681v5.5h-8.681zM82.985 123.113h53.661v5.5H82.985zM67.619 123.113H76.3v5.5h-8.681z" opacity="1" data-original="#1a638a" class=""></path><path fill="#177ca0" d="M20.007 141.296h8.681v5.5h-8.681zM50.66 141.296h53.661v5.5H50.66zM35.295 141.296h8.681v5.5h-8.681z" opacity="1" data-original="#177ca0" class=""></path><path fill="#1a638a" d="M24.248 190.423h8.681v5.5h-8.681zM54.902 190.423h53.66v5.5h-53.66zM39.535 190.423h8.682v5.5h-8.682z" opacity="1" data-original="#1a638a" class=""></path><path fill="#4a9a00" d="m234.748 133.37-33.583-29.096v16.338h-34.968v25.518h34.968v16.337z" opacity="1" data-original="#f79c20" class=""></path><path fill="#4a9a00" d="m151.842 166.826-33.582-29.097v16.338H79.018v25.517h39.242v16.338z" opacity="1" data-original="#ffd04c" class=""></path><path fill="#4a9a00" d="M194.177 98.159 146.604 56.94v23.145H89.736v6.78h9.197v11h-9.197v18.368h56.868v23.144z" opacity="1" data-original="#d93332" class=""></path></g></svg>