<svg xmlns="http://www.w3.org/2000/svg" version="1.1" xmlns:xlink="http://www.w3.org/1999/xlink" width="512" height="512" x="0" y="0" viewBox="0 0 499.94 499.94" style="enable-background:new 0 0 512 512" xml:space="preserve" class=""><g><path fill="#e8edf2" d="m456.25 340.15 2 58.03-21.95 14.16-94.03 33.78-33.66 10.08H190.4l-32.73-10.08-94.03-33.78-24.91-11.03-2.46-61.16h27.37z" opacity="1" data-original="#e8edf2" class=""></path><path fill="#b6c4cf" d="M333.193 333.838c0-5.496-4.456-9.952-9.952-9.952H176.699c-5.496 0-9.952 4.456-9.952 9.952v122.364h166.445V333.838z" opacity="1" data-original="#b6c4cf" class=""></path><path fill="#e8edf2" d="m299.51 247.67-11.65-32.07-14.94-159.68-6.193-11.765h-30.933L227.02 55.92 212.08 215.6l-11.65 32.07c-.78 2.15-1.18 4.42-1.18 6.71v204.29c0 6.88 5.58 12.45 12.46 12.45h76.52c6.88 0 12.46-5.57 12.46-12.45V254.38c0-2.29-.4-4.56-1.18-6.71z" opacity="1" data-original="#e8edf2" class=""></path><path fill="#d9e7ec" d="M249.539 458.67V254.38c0-2.29.4-4.56 1.18-6.71l11.65-32.07 12.746-136.227-2.195-23.453-6.193-11.765h-30.933L227.02 55.92 212.08 215.6l-11.65 32.07c-.78 2.15-1.18 4.42-1.18 6.71v204.29c0 6.88 5.58 12.45 12.46 12.45h50.289c-6.88 0-12.46-5.57-12.46-12.45zM453.709 361.386a7.499 7.499 0 0 1-7.5-7.5V149.098c0-4.143 3.357-7.5 7.5-7.5s7.5 3.357 7.5 7.5v204.788a7.5 7.5 0 0 1-7.5 7.5zM46.231 356.386a7.499 7.499 0 0 1-7.5-7.5V151.098c0-4.143 3.357-7.5 7.5-7.5s7.5 3.357 7.5 7.5v197.788a7.5 7.5 0 0 1-7.5 7.5z" opacity="1" data-original="#d9e7ec" class=""></path><path fill="#c5d3dd" d="M268.37 349.89v121.23h-36.8V349.89c0-10.16 8.24-18.4 18.4-18.4 5.08 0 9.68 2.06 13.01 5.39s5.39 7.93 5.39 13.01z" opacity="1" data-original="#c5d3dd"></path><path fill="#b6c4cf" d="M249.539 458.67V331.512c-9.959.231-17.969 8.364-17.969 18.378v121.23h30.425c-6.878-.002-12.456-5.571-12.456-12.45z" opacity="1" data-original="#b6c4cf" class=""></path><path fill="#b6c4cf" d="M268.37 425.016h-36.8v15h36.8z" opacity="1" data-original="#b6c4cf" class=""></path><path fill="#9facba" d="M249.539 440.016v-15H231.57v15h.001z" opacity="1" data-original="#9facba"></path><path fill="#b6c4cf" d="M268.37 393.808h-36.8v15h36.8z" opacity="1" data-original="#b6c4cf" class=""></path><path fill="#9facba" d="M249.539 408.808v-15H231.57v15h.001z" opacity="1" data-original="#9facba"></path><path fill="#b6c4cf" d="M268.37 362.601h-36.8v15h36.8z" opacity="1" data-original="#b6c4cf" class=""></path><path fill="#9facba" d="M249.539 377.601v-15H231.57v15h.001z" opacity="1" data-original="#9facba"></path><path fill="#b6c4cf" d="M249.97 196.469a7.499 7.499 0 0 1-7.5-7.5V55.925c0-4.143 3.357-7.5 7.5-7.5s7.5 3.357 7.5 7.5v133.044a7.5 7.5 0 0 1-7.5 7.5z" opacity="1" data-original="#b6c4cf" class=""></path><path fill="#ee6161" d="m268.7 10.75 4.22 45.17h-45.9l4.22-45.17C231.81 4.66 236.93 0 243.05 0h13.84c6.12 0 11.24 4.66 11.81 10.75z" opacity="1" data-original="#ee6161"></path><path fill="#b6c4cf" d="M249.97 260.723a7.499 7.499 0 0 1-7.5-7.5v-29.84c0-4.143 3.357-7.5 7.5-7.5s7.5 3.357 7.5 7.5v29.84a7.5 7.5 0 0 1-7.5 7.5z" opacity="1" data-original="#b6c4cf" class=""></path><path fill="#a7eedc" d="M259.388 301.587h-18.835a6.746 6.746 0 0 1-6.746-6.746v-36.455c0-8.927 7.237-16.163 16.163-16.163 8.927 0 16.163 7.237 16.163 16.163v36.455a6.745 6.745 0 0 1-6.745 6.746z" opacity="1" data-original="#a7eedc"></path><path fill="#86e8d0" d="M240.552 301.587h8.986V254.38c0-2.29.4-4.56 1.18-6.71l1.894-5.213a16.201 16.201 0 0 0-2.642-.234c-8.927 0-16.163 7.237-16.163 16.164v36.455a6.746 6.746 0 0 0 6.745 6.745z" opacity="1" data-original="#86e8d0"></path><path fill="#b6c4cf" d="M45.952 434.764h.557c9.46 0 17.129-7.669 17.129-17.129v-86.797a6.952 6.952 0 0 0-6.952-6.952h-20.91a6.952 6.952 0 0 0-6.952 6.952v86.797c-.001 9.46 7.668 17.129 17.128 17.129z" opacity="1" data-original="#b6c4cf" class=""></path><circle cx="46.23" cy="145.288" r="16.397" fill="#f37c7c" opacity="1" data-original="#f37c7c"></circle><path fill="#e8edf2" d="M60.817 200.643H31.644c-4.143 0-7.5-3.357-7.5-7.5s3.357-7.5 7.5-7.5h29.173c4.143 0 7.5 3.357 7.5 7.5s-3.358 7.5-7.5 7.5zM71.071 237.645H21.39c-4.143 0-7.5-3.357-7.5-7.5s3.357-7.5 7.5-7.5h49.681c4.143 0 7.5 3.357 7.5 7.5s-3.358 7.5-7.5 7.5zM81.583 279.405H10.877c-4.143 0-7.5-3.357-7.5-7.5s3.357-7.5 7.5-7.5h70.706c4.143 0 7.5 3.357 7.5 7.5s-3.357 7.5-7.5 7.5z" opacity="1" data-original="#e8edf2" class=""></path><path fill="#d9e7ec" d="m125.199 434.455 15 5.389V340.15h-15zM90.346 421.934l15 5.389V340.15h-15z" opacity="1" data-original="#d9e7ec" class=""></path><path fill="#f37c7c" d="M199.25 426.35v41.06h-41.58v-21.29c0-10.91 8.85-19.77 19.77-19.77zM342.27 446.12v21.29h-41.58v-41.06h21.81c10.92 0 19.77 8.86 19.77 19.77z" opacity="1" data-original="#f37c7c"></path><g fill="#b6c4cf"><path d="M342.27 467.41v25.47c0 3.9-3.16 7.06-7.07 7.06h-27.45c-3.9 0-7.06-3.16-7.06-7.06v-25.47zM199.25 467.41v25.47c0 3.9-3.16 7.06-7.06 7.06h-27.45c-3.91 0-7.07-3.16-7.07-7.06v-25.47z" fill="#b6c4cf" opacity="1" data-original="#b6c4cf" class=""></path></g><path fill="#b6c4cf" d="M453.988 434.764h-.557c-9.46 0-17.129-7.669-17.129-17.129v-86.797a6.952 6.952 0 0 1 6.952-6.952h20.91a6.952 6.952 0 0 1 6.952 6.952v86.797c.001 9.46-7.668 17.129-17.128 17.129z" opacity="1" data-original="#b6c4cf" class=""></path><circle cx="453.71" cy="145.288" r="16.397" fill="#f37c7c" opacity="1" data-original="#f37c7c"></circle><path fill="#e8edf2" d="M468.296 200.643h-29.173c-4.143 0-7.5-3.357-7.5-7.5s3.357-7.5 7.5-7.5h29.173c4.143 0 7.5 3.357 7.5 7.5s-3.357 7.5-7.5 7.5zM478.55 237.645h-49.681c-4.143 0-7.5-3.357-7.5-7.5s3.357-7.5 7.5-7.5h49.681c4.143 0 7.5 3.357 7.5 7.5s-3.357 7.5-7.5 7.5zM489.063 279.405h-70.706c-4.143 0-7.5-3.357-7.5-7.5s3.357-7.5 7.5-7.5h70.706c4.143 0 7.5 3.357 7.5 7.5s-3.358 7.5-7.5 7.5z" opacity="1" data-original="#e8edf2" class=""></path><g fill="#d9e7ec"><path d="m359.741 439.844 15-5.389V340.15h-15zM394.594 427.323l15-5.389V340.15h-15z" fill="#d9e7ec" opacity="1" data-original="#d9e7ec" class=""></path></g></g></svg>